<svg width="980" height="551" xmlns="http://www.w3.org/2000/svg" xmlns:xlink="http://www.w3.org/1999/xlink">
<path fill="#ff595e" d="M 387.95 325.85 Q 387.95 325.85 395.33 318.30 402.70 310.75 421.38 295.71 440.06 280.67 455.44 268.06 470.82 255.45 481.73 247.06 492.64 238.67 500.49 234.15 508.35 229.63 512.81 227.89 517.26 226.15 520.75 226.65 524.24 227.14 525.48 230.61 526.72 234.09 524.77 240.84 522.81 247.59 507.44 265.27 492.07 282.95 472.61 300.10 453.15 317.25 431.96 333.77 410.77 350.30 385.72 368.47 360.67 386.63 343.86 397.27 327.05 407.91 316.74 412.60 306.43 417.30 299.41 415.20 292.40 413.10 288.99 405.61 285.58 398.11 287.81 379.97 290.04 361.82 295.62 344.00 301.19 326.18 310.29 307.84 319.38 289.50 334.80 270.35 350.22 251.19 363.73 238.46 377.23 225.73 391.13 217.66 405.03 209.60 414.58 206.05 424.12 202.49 430.48 201.74 436.83 200.99 441.15 201.97 445.47 202.95 447.80 205.07 450.14 207.20 451.04 210.21 451.95 213.22 449.41 219.03 446.87 224.84 440.95 231.02 435.04 237.19 423.22 245.39 411.39 253.60 401.04 259.96 390.69 266.32 381.73 271.58 372.76 276.84 365.12 280.66 357.47 284.48 353.78 286.32 350.10 288.16 349.22 288.27 348.35 288.37 348.12 288.45 347.89 288.53 347.65 288.56 347.41 288.58 347.18 288.55 346.94 288.51 346.71 288.42 346.49 288.33 346.29 288.19 346.10 288.05 345.94 287.87 345.79 287.68 345.68 287.47 345.57 287.25 345.52 287.02 345.47 286.78 345.47 286.54 345.47 286.30 345.54 286.07 345.60 285.84 345.72 285.62 345.83 285.41 346.00 285.24 346.16 285.06 346.36 284.93 346.56 284.79 354.82 280.08 363.08 275.36 391.14 264.93 419.20 254.50 439.00 250.16 458.80 245.83 472.00 247.10 485.19 248.38 492.34 256.95 499.48 265.52 499.78 274.45 500.08 283.38 495.40 291.68 490.72 299.97 477.89 306.95 465.06 313.92 453.41 317.16 441.76 320.41 433.13 319.80 424.51 319.18 421.55 314.30 418.59 309.42 422.37 302.35 426.15 295.28 438.10 288.72 450.06 282.17 462.36 280.42 474.65 278.68 493.00 283.46 511.35 288.24 529.75 294.51 548.16 300.78 567.38 306.66 586.61 312.53 607.23 315.56 627.84 318.58 640.63 317.33 653.42 316.07 660.74 312.08 668.06 308.10 671.80 298.26 675.53 288.41 676.31 274.23 677.09 260.05 670.90 233.57 664.72 207.10 653.25 182.68 641.78 158.27 623.73 138.62 605.68 118.97 572.50 108.29 539.32 97.62 505.78 102.35 472.23 107.09 442.36 125.52 412.50 143.94 390.71 180.15 368.91 216.35 362.08 245.24 355.25 274.14 360.98 299.05 366.71 323.97 374.26 337.56 381.80 351.16 390.24 357.17 398.68 363.18 412.96 362.61 427.24 362.05 442.76 357.89 458.28 353.74 469.90 350.80 481.52 347.87 481.52 347.88 481.52 347.88 481.52 347.89 481.53 347.89 470.42 352.75 459.30 357.60 443.34 361.82 427.38 366.04 412.11 366.31 396.84 366.59 387.63 359.90 378.41 353.22 370.62 339.06 362.83 324.89 357.09 299.14 351.35 273.40 358.41 243.87 365.46 214.33 387.86 177.51 410.26 140.68 440.90 121.93 471.55 103.17 505.96 98.49 540.38 93.80 574.39 104.96 608.40 116.12 626.89 136.32 645.37 156.52 656.99 181.35 668.61 206.17 674.84 233.21 681.08 260.24 680.17 275.03 679.26 289.83 674.82 300.49 670.39 311.14 662.16 315.58 653.93 320.01 640.61 321.28 627.29 322.54 606.37 319.45 585.45 316.36 566.16 310.46 546.87 304.57 528.60 298.34 510.33 292.10 492.70 287.37 475.07 282.63 463.47 284.18 451.87 285.72 440.62 291.61 429.38 297.50 425.70 303.47 422.03 309.44 424.07 312.73 426.11 316.01 433.43 316.28 440.76 316.54 451.98 313.46 463.19 310.38 475.35 304.06 487.50 297.73 491.83 290.45 496.16 283.16 496.17 275.33 496.18 267.51 490.09 259.72 483.99 251.92 471.80 250.83 459.60 249.74 440.09 253.99 420.58 258.25 392.82 268.54 365.05 278.84 356.70 283.61 348.35 288.37 348.12 288.45 347.89 288.53 347.65 288.56 347.42 288.58 347.18 288.55 346.94 288.51 346.71 288.42 346.49 288.33 346.29 288.19 346.10 288.05 345.94 287.87 345.79 287.68 345.68 287.47 345.57 287.25 345.52 287.02 345.47 286.78 345.47 286.54 345.47 286.30 345.54 286.07 345.60 285.84 345.72 285.62 345.83 285.41 346.00 285.24 346.16 285.06 346.36 284.93 346.56 284.79 347.47 284.68 348.38 284.56 352.03 282.73 355.68 280.90 363.21 277.15 370.74 273.39 379.67 268.15 388.60 262.91 398.86 256.61 409.12 250.31 420.65 242.35 432.18 234.40 437.74 228.74 443.29 223.08 445.73 218.35 448.16 213.62 447.68 211.72 447.20 209.82 445.75 208.26 444.29 206.70 440.75 205.83 437.21 204.96 431.35 205.60 425.49 206.25 416.25 209.66 407.02 213.07 393.49 220.86 379.96 228.65 366.64 241.18 353.33 253.71 338.14 272.50 322.95 291.30 313.98 309.34 305.00 327.38 299.50 344.87 294.00 362.35 291.65 379.59 289.30 396.84 291.88 403.46 294.47 410.08 299.97 411.85 305.48 413.62 315.20 409.07 324.92 404.53 341.62 393.96 358.33 383.39 383.32 365.27 408.31 347.15 429.41 330.70 450.51 314.24 469.79 297.28 489.06 280.31 504.06 263.29 519.06 246.28 520.98 240.56 522.89 234.84 522.24 232.02 521.58 229.19 520.09 229.55 518.59 229.90 514.46 231.50 510.33 233.10 502.70 237.47 495.07 241.84 484.22 250.19 473.36 258.54 457.96 271.17 442.57 283.79 423.92 298.80 405.28 313.80 396.63 319.83 387.97 325.87 387.96 325.86 Z" data-drauu_index="0"></path>
</svg>